<svg width="16" height="12" viewBox="0 0 16 12" fill="none" xmlns="http://www.w3.org/2000/svg">
<path class="icon__color-element" d="M8.183 0C8.5835 0.00225 9.5855 0.012 10.6505 0.05475L11.0285 0.0712498C12.1003 0.1215 13.1713 0.2085 13.703 0.35625C14.4117 0.55575 14.9683 1.13625 15.1565 1.87275C15.4565 3.04275 15.494 5.32425 15.4985 5.877L15.4993 5.991V6.1215C15.494 6.67425 15.4565 8.9565 15.1565 10.1257C14.966 10.8645 14.4088 11.4458 13.703 11.6423C13.1713 11.79 12.1003 11.877 11.0285 11.9272L10.6505 11.9445C9.5855 11.9865 8.5835 11.997 8.183 11.9985L8.00675 11.9993H7.8155C6.968 11.994 3.4235 11.9558 2.2955 11.6423C1.5875 11.4428 1.03025 10.8622 0.842 10.1257C0.542 8.95575 0.5045 6.67425 0.5 6.1215V5.877C0.5045 5.32425 0.542 3.042 0.842 1.87275C1.0325 1.134 1.58975 0.55275 2.29625 0.357C3.4235 0.0427499 6.96875 0.0045 7.81625 0H8.183ZM6.49925 3.375V8.625L10.9992 6L6.49925 3.375Z" fill="#000000"/>
</svg>
