<svg width="24" height="24" viewBox="0 0 24 24" fill="none" xmlns="http://www.w3.org/2000/svg">
<path class="icon__color-element" d="M4 20C3.45 20 2.979 19.804 2.587 19.412C2.195 19.02 1.99934 18.5493 2 18V10.825C2 10.5583 2.05 10.3043 2.15 10.063C2.25 9.82167 2.39167 9.609 2.575 9.425L6.575 5.425C6.775 5.225 7 5.075 7.25 4.975C7.5 4.875 7.75 4.825 8 4.825C8.25 4.825 8.5 4.875 8.75 4.975C9 5.075 9.225 5.225 9.425 5.425L13.425 9.425C13.6083 9.60834 13.75 9.821 13.85 10.063C13.95 10.305 14 10.559 14 10.825V18C14 18.55 13.8043 19.021 13.413 19.413C13.0217 19.805 12.5507 20.0007 12 20H9.5C9.36667 20 9.25 19.95 9.15 19.85C9.05 19.75 9 19.6333 9 19.5V16C9 15.7167 8.904 15.479 8.712 15.287C8.52 15.095 8.28267 14.9993 8 15C7.71667 15 7.479 15.096 7.287 15.288C7.095 15.48 6.99934 15.7173 7 16V19.5C7 19.6333 6.95 19.75 6.85 19.85C6.75 19.95 6.63334 20 6.5 20H4ZM16 19V9.175L12.525 5.7C12.2083 5.38333 12.1333 5.02067 12.3 4.612C12.4667 4.20333 12.775 3.99933 13.225 4C13.3583 4 13.4917 4.02933 13.625 4.088C13.7583 4.14667 13.8667 4.21734 13.95 4.3L17.425 7.775C17.6083 7.95834 17.75 8.171 17.85 8.413C17.95 8.655 18 8.909 18 9.175V19C18 19.2833 17.904 19.521 17.712 19.713C17.52 19.905 17.2827 20.0007 17 20C16.7167 20 16.479 19.904 16.287 19.712C16.095 19.52 15.9993 19.2827 16 19ZM20 19V7.525L18.175 5.7C17.8583 5.38333 17.7833 5.02067 17.95 4.612C18.1167 4.20333 18.425 3.99933 18.875 4C19.0083 4 19.1417 4.02933 19.275 4.088C19.4083 4.14667 19.5167 4.21734 19.6 4.3L21.425 6.125C21.6083 6.30834 21.75 6.521 21.85 6.763C21.95 7.005 22 7.259 22 7.525V19C22 19.2833 21.904 19.521 21.712 19.713C21.52 19.905 21.2827 20.0007 21 20C20.7167 20 20.479 19.904 20.287 19.712C20.095 19.52 19.9993 19.2827 20 19ZM8 13C8.28334 13 8.521 12.904 8.713 12.712C8.905 12.52 9.00067 12.2827 9 12C9 11.7167 8.904 11.479 8.712 11.287C8.52 11.095 8.28267 10.9993 8 11C7.71667 11 7.479 11.096 7.287 11.288C7.095 11.48 6.99934 11.7173 7 12C7 12.2833 7.096 12.521 7.288 12.713C7.48 12.905 7.71734 13.0007 8 13Z"/>
</svg>
