<svg width="18" height="12" viewBox="0 0 18 12" fill="none" xmlns="http://www.w3.org/2000/svg">
<path class="icon__color-element" fill-rule="evenodd" clip-rule="evenodd" d="M16.0219 8.06799C16.0219 8.06799 17.4772 9.50529 17.8372 10.1704C17.8442 10.18 17.8496 10.1906 17.8534 10.2019C18.0001 10.4476 18.0361 10.6402 17.9641 10.7824C17.8426 11.0173 17.4313 11.1352 17.2918 11.1451H14.7196C14.5405 11.1451 14.1679 11.0983 13.7143 10.7851C13.3678 10.543 13.0231 10.1443 12.6892 9.75459C12.1906 9.17589 11.7595 8.67369 11.323 8.67369C11.2679 8.67357 11.2131 8.6827 11.161 8.70069C10.8307 8.80509 10.4113 9.27579 10.4113 10.5295C10.4113 10.9219 10.1017 11.1451 9.88478 11.1451H8.70668C8.30528 11.1451 6.21548 11.0047 4.36238 9.05079C2.09168 6.65859 0.052281 1.85979 0.032481 1.81749C-0.094419 1.50699 0.171981 1.33779 0.459981 1.33779H3.05738C3.40568 1.33779 3.51908 1.54839 3.59828 1.73739C3.69008 1.95429 4.03028 2.82189 4.58828 3.79659C5.49188 5.38239 6.04718 6.02769 6.49088 6.02769C6.57424 6.02794 6.65619 6.00621 6.72848 5.96469C7.30808 5.64609 7.20008 3.57609 7.17308 3.14949C7.17308 3.06669 7.17218 2.22519 6.87518 1.81839C6.66278 1.52679 6.30098 1.41339 6.08228 1.37199C6.14078 1.28739 6.26498 1.15779 6.42428 1.08129C6.82118 0.883292 7.53848 0.854492 8.25038 0.854492H8.64548C9.41768 0.865292 9.61748 0.914792 9.89828 0.985892C10.4635 1.12089 10.4743 1.48719 10.4248 2.73459C10.4104 3.09099 10.3951 3.49239 10.3951 3.96489C10.3951 4.06569 10.3906 4.17819 10.3906 4.29249C10.3735 4.93239 10.351 5.65329 10.8028 5.94939C10.8614 5.9859 10.929 6.00523 10.9981 6.00519C11.1547 6.00519 11.6236 6.00519 12.8953 3.82269C13.4533 2.85879 13.8853 1.72209 13.915 1.63659C13.9402 1.58889 14.0158 1.45479 14.1076 1.40079C14.1729 1.36605 14.246 1.34869 14.32 1.35039H17.3755C17.7085 1.35039 17.9344 1.40079 17.9785 1.52679C18.0523 1.73109 17.9641 2.35479 16.5691 4.24119C16.3342 4.55529 16.1281 4.82709 15.9472 5.06469C14.6827 6.72429 14.6827 6.80799 16.0219 8.06799Z" fill="#000000"/>
</svg>
