<svg width="24" height="24" viewBox="0 0 24 24" fill="none" xmlns="http://www.w3.org/2000/svg">
<path class="icon__color-element" d="M2 20.9999V17.9999C2 17.7833 2.03334 17.5749 2.1 17.3749C2.16667 17.1749 2.26667 16.9833 2.4 16.7999L10.75 5.54994L9.6 3.99993C9.51667 3.88327 9.45834 3.7626 9.425 3.63793C9.39167 3.51327 9.38334 3.38827 9.4 3.26293C9.41667 3.1376 9.45834 3.0166 9.525 2.89993C9.59167 2.78327 9.68334 2.68327 9.8 2.59993C10.0333 2.43327 10.2833 2.3666 10.55 2.39993C10.8167 2.43327 11.0333 2.5666 11.2 2.79993L12 3.87493L12.8 2.79993C12.9667 2.5666 13.1833 2.43327 13.45 2.39993C13.7167 2.3666 13.9667 2.43327 14.2 2.59993C14.4333 2.7666 14.5667 2.98327 14.6 3.24993C14.6333 3.5166 14.5667 3.7666 14.4 3.99993L13.25 5.54994L21.6 16.7999C21.7333 16.9833 21.8333 17.1749 21.9 17.3749C21.9667 17.5749 22 17.7833 22 17.9999V20.9999C22 21.2833 21.9043 21.5209 21.713 21.7129C21.5217 21.9049 21.284 22.0006 21 21.9999H3C2.71667 21.9999 2.479 21.9039 2.287 21.7119C2.095 21.5199 1.99934 21.2826 2 20.9999ZM8.225 19.9999H15.775L12 14.7249L8.225 19.9999Z"/>
</svg>
