<svg width="24" height="24" viewBox="0 0 24 24" fill="none" xmlns="http://www.w3.org/2000/svg">
<path fill-rule="evenodd" clip-rule="evenodd" d="M4.25 9C4.25 6.94457 5.06652 4.97333 6.51992 3.51992C7.97333 2.06652 9.94457 1.25 12 1.25C14.0554 1.25 16.0267 2.06652 17.4801 3.51992C18.9335 4.97333 19.75 6.94457 19.75 9V15C19.75 17.0554 18.9335 19.0267 17.4801 20.4801C16.0267 21.9335 14.0554 22.75 12 22.75C9.94457 22.75 7.97333 21.9335 6.51992 20.4801C5.06652 19.0267 4.25 17.0554 4.25 15V9ZM11.25 2.795C9.73338 2.97854 8.33647 3.71111 7.32313 4.85434C6.30979 5.99757 5.75018 7.47231 5.75 9V15C5.75 16.6576 6.40848 18.2473 7.58058 19.4194C8.75269 20.5915 10.3424 21.25 12 21.25C13.6576 21.25 15.2473 20.5915 16.4194 19.4194C17.5915 18.2473 18.25 16.6576 18.25 15V9C18.2498 7.47231 17.6902 5.99757 16.6769 4.85434C15.6635 3.71111 14.2666 2.97854 12.75 2.795V6.378C13.1888 6.53313 13.5687 6.82052 13.8373 7.20056C14.106 7.5806 14.2501 8.0346 14.25 8.5V10.5C14.25 11.0967 14.0129 11.669 13.591 12.091C13.169 12.5129 12.5967 12.75 12 12.75C11.4033 12.75 10.831 12.5129 10.409 12.091C9.98705 11.669 9.75 11.0967 9.75 10.5V8.5C9.75 7.52 10.376 6.687 11.25 6.378V2.795ZM12 7.75C11.8011 7.75 11.6103 7.82902 11.4697 7.96967C11.329 8.11032 11.25 8.30109 11.25 8.5V10.5C11.25 10.6989 11.329 10.8897 11.4697 11.0303C11.6103 11.171 11.8011 11.25 12 11.25C12.1989 11.25 12.3897 11.171 12.5303 11.0303C12.671 10.8897 12.75 10.6989 12.75 10.5V8.5C12.75 8.30109 12.671 8.11032 12.5303 7.96967C12.3897 7.82902 12.1989 7.75 12 7.75Z" fill="#5C5C5C"/>
</svg>
