<svg xmlns="http://www.w3.org/2000/svg" width="24" height="24" fill="none" viewBox="0 0 24 24"><path d="M4 20c-.55 0-1.021-.196-1.413-.588A1.922 1.922 0 012 18v-7.175a1.97 1.97 0 01.575-1.4l4-4c.2-.2.425-.35.675-.45.25-.1.5-.15.75-.15s.5.05.75.15c.25.1.475.25.675.45l4 4a1.976 1.976 0 01.575 1.4V18c0 .55-.196 1.021-.587 1.413A1.92 1.92 0 0112 20H9.5a.48.48 0 01-.35-.15.48.48 0 01-.15-.35V16a.968.968 0 00-.288-.713A.964.964 0 008 15a.968.968 0 00-.713.288A.964.964 0 007 16v3.5a.48.48 0 01-.15.35.48.48 0 01-.35.15H4zm12-1V9.175L12.525 5.7c-.317-.317-.392-.68-.225-1.088.167-.409.475-.613.925-.612.133 0 .267.03.4.088.133.059.242.13.325.212l3.475 3.475a1.976 1.976 0 01.575 1.4V19a.968.968 0 01-.288.713A.964.964 0 0117 20a.968.968 0 01-.713-.288A.964.964 0 0116 19zm4 0V7.525L18.175 5.7c-.317-.317-.392-.68-.225-1.088.167-.409.475-.613.925-.612.133 0 .267.03.4.088.133.059.242.13.325.212l1.825 1.825a1.976 1.976 0 01.575 1.4V19a.968.968 0 01-.288.713A.964.964 0 0121 20a.968.968 0 01-.713-.288A.964.964 0 0120 19zM8 13a.968.968 0 00.713-.288A.964.964 0 009 12a.968.968 0 00-.288-.713A.964.964 0 008 11a.968.968 0 00-.713.288A.964.964 0 007 12c0 .283.096.521.288.713.192.192.43.288.712.287z" class="icon__color-element"/></svg>