<svg xmlns="http://www.w3.org/2000/svg" width="24" height="24" fill="none" viewBox="0 0 24 24"><path d="M2 21v-3c0-.217.033-.425.1-.625s.167-.392.3-.575l8.35-11.25L9.6 4a1.12 1.12 0 01-.175-.362.952.952 0 01.1-.738.94.94 0 01.275-.3c.233-.167.483-.233.75-.2a.913.913 0 01.65.4l.8 1.075.8-1.075a.913.913 0 01.65-.4c.267-.033.517.033.75.2a.913.913 0 01.4.65c.033.267-.033.517-.2.75l-1.15 1.55L21.6 16.8c.133.183.233.375.3.575.067.2.1.408.1.625v3a.97.97 0 01-.287.713A.963.963 0 0121 22H3a.968.968 0 01-.713-.288A.964.964 0 012 21zm6.225-1h7.55L12 14.725 8.225 20z" class="icon__color-element"/></svg>