<svg xmlns="http://www.w3.org/2000/svg" width="16" height="12" fill="none" viewBox="0 0 16 12"><path fill="#000" d="M8.183 0c.4.002 1.402.012 2.467.055l.378.016c1.072.05 2.143.138 2.675.285.709.2 1.265.78 1.454 1.517.3 1.17.337 3.451.341 4.004l.001.114v.13c-.005.553-.043 2.835-.343 4.005-.19.739-.747 1.32-1.453 1.516-.532.148-1.603.235-2.675.285l-.378.018a75.05 75.05 0 01-2.467.053L8.007 12h-.191c-.848-.005-4.392-.043-5.52-.357a2.11 2.11 0 01-1.454-1.516C.542 8.956.504 6.674.5 6.122v-.245c.004-.553.042-2.835.342-4.004.19-.739.748-1.32 1.454-1.516C3.424.043 6.97.005 7.816 0h.367zM6.499 3.375v5.25L11 6 6.5 3.375z" class="icon__color-element"/></svg>