<svg xmlns="http://www.w3.org/2000/svg" width="18" height="12" fill="none" viewBox="0 0 18 12"><path fill="#000" fill-rule="evenodd" d="M16.022 8.068s1.455 1.437 1.815 2.102c.007.01.013.02.016.032.147.246.183.438.111.58-.121.235-.533.353-.672.363H14.72c-.18 0-.552-.047-1.006-.36-.346-.242-.69-.64-1.025-1.03-.498-.58-.93-1.081-1.366-1.081a.493.493 0 00-.162.027c-.33.104-.75.575-.75 1.829 0 .392-.31.615-.526.615H8.707c-.402 0-2.492-.14-4.345-2.094C2.092 6.659.052 1.86.032 1.817c-.126-.31.14-.48.428-.48h2.597c.349 0 .462.211.541.4.092.217.432 1.085.99 2.06.904 1.585 1.46 2.23 1.903 2.23a.474.474 0 00.237-.062c.58-.319.472-2.389.445-2.816 0-.082 0-.924-.298-1.33-.212-.292-.574-.406-.793-.447a.94.94 0 01.342-.29C6.821.882 7.538.853 8.25.853h.395c.773.011.972.06 1.253.132.566.135.576.501.527 1.749-.015.356-.03.757-.03 1.23 0 .1-.004.213-.004.327-.018.64-.04 1.361.412 1.657a.369.369 0 00.195.056c.157 0 .626 0 1.897-2.182.558-.964.99-2.1 1.02-2.186.025-.048.1-.182.193-.236a.431.431 0 01.212-.05h3.055c.334 0 .56.05.604.176.073.204-.015.828-1.41 2.714-.235.314-.44.586-.622.824-1.264 1.66-1.264 1.743.075 3.003z" class="icon__color-element" clip-rule="evenodd"/></svg>